# xmcd
#
# Track frame offsets: 
#        150
#        16859
#        36178
#        52069
#        68778
#        89658
#        110948
#        125558
#        148095
#
# Disc length: 2286 seconds
#
# Revision: 0
# Processed by: cddbd v1.5.2PL0 Copyright (c) Steve Scherf et al.
# Submitted via: ExactAudioCopyFreeDBPlugin 1.0
#
DISCID=8808ec09
DTITLE=Luke Winslow-King - I'm glad trouble don't last always
DYEAR=2016
DGENRE=Blues
TTITLE0=On my way
TTITLE1=I'm glad trouble don't last always
TTITLE2=Change your mind
TTITLE3=Heartsick Blues
TTITLE4=Esther please
TTITLE5=Watch me go
TTITLE6=Act like you love me
TTITLE7=Louisiana Blues
TTITLE8=No more crying today
EXTD=
EXTT0=
EXTT1=
EXTT2=
EXTT3=
EXTT4=
EXTT5=
EXTT6=
EXTT7=
EXTT8=
PLAYORDER=
